<svg version="1.1" id="Layer_1" xmlns="http://www.w3.org/2000/svg" xmlns:xlink="http://www.w3.org/1999/xlink" x="0px" y="0px" viewBox="0 0 500 500" style="width: 148px;" xml:space="preserve" data-imageid="coding-2-31" imageName="Coding 2" class="illustrations_image">
<style type="text/css">
	.st0_coding-2-31{fill:#FFFFFF;}
	.st1_coding-2-31{fill:#020617;}
	.st2_coding-2-31{fill:#68E1FD;}
	.st3_coding-2-31{fill:#D1D3D4;}
</style>
<g id="Screen_1_coding-2-31">
	<path class="st0_coding-2-31" d="M132.6,243.8c0,0-1.7,41.2,2.9,54.8h21.1c2.2,0,4.2,1.5,4.9,3.6l1.1,3.8h-53.8c-4.1-2.7-7.5-6.2-10-10.3&#10;&#9;&#9;c-3.6-6.4-1.4-51.8-1.4-51.8H132.6z"/>
	<path class="st1_coding-2-31" d="M162.6,306.6h-53.8c-0.1,0-0.2,0-0.3-0.1c-4.1-2.7-7.6-6.3-10.2-10.5c-3.7-6.5-1.6-50.3-1.5-52.2&#10;&#9;&#9;c0-0.3,0.3-0.6,0.7-0.6h35c0.2,0,0.3,0.1,0.5,0.2c0.1,0.1,0.2,0.3,0.2,0.5c0,0.4-1.6,40.4,2.7,54.1h20.7c2.5,0,4.8,1.6,5.5,4.1&#10;&#9;&#9;l1.1,3.8c0.1,0.4-0.1,0.7-0.5,0.8C162.7,306.6,162.6,306.6,162.6,306.6z M109,305.3h52.7l-0.9-3c-0.6-1.9-2.3-3.1-4.2-3.1h-21.1&#10;&#9;&#9;c-0.3,0-0.5-0.2-0.6-0.4c-4.4-12.7-3.2-48.7-3-54.3H98.1c-0.8,15.9-1.4,46,1.3,50.9C101.9,299.3,105.1,302.7,109,305.3z"/>
	<path class="st1_coding-2-31" d="M100.1,287.7c0,8.6,2.6,11.2,6,11.2h13.5c1.9,0,3.6,1.2,4.3,3l1.5,4.1h-20.8c-5.3,0-9.1-8.1-9.3-16.7&#10;&#9;&#9;s0-45.5,0-45.5h4.6C99.9,243.8,100.1,279.1,100.1,287.7z"/>
	<path class="st1_coding-2-31" d="M125.3,306.6h-20.8c-6,0-9.8-8.8-9.9-17.3s0-45.1,0-45.5c0-0.4,0.3-0.6,0.7-0.6h4.6c0.4,0,0.7,0.3,0.7,0.6&#10;&#9;&#9;c0,0.4,0.2,35.5,0.2,44c0,10.5,4,10.5,5.4,10.5h13.5c2.2,0,4.1,1.4,4.9,3.4l1.5,4.1c0.1,0.2,0,0.4-0.1,0.6&#10;&#9;&#9;C125.7,306.5,125.5,306.6,125.3,306.6z M95.9,244.4c0,5-0.2,37,0,44.8c0.2,8.8,4,16,8.6,16h19.8l-1.2-3.2c-0.6-1.5-2-2.5-3.7-2.5&#10;&#9;&#9;h-13.5c-4.5,0-6.7-3.9-6.7-11.8s-0.1-38.4-0.2-43.3L95.9,244.4z"/>
	<path class="st1_coding-2-31" d="M172.6,147.4l8.1,93c0.5,4-2.3,7.7-6.4,8.3c-0.3,0-0.6,0.1-0.9,0.1H62.6c-4.6-0.2-8.3-3.7-8.7-8.3l-8.1-93&#10;&#9;&#9;c-0.5-4,2.3-7.7,6.4-8.3c0.3,0,0.6-0.1,0.9-0.1h110.9C168.5,139.3,172.2,142.8,172.6,147.4z"/>
	<path class="st1_coding-2-31" d="M173.5,249.4H62.6c-4.9-0.2-9-4-9.4-8.9l-8.1-93c-0.2-2.4,0.5-4.7,2.1-6.5c1.5-1.6,3.6-2.6,5.8-2.6h110.9&#10;&#9;&#9;c4.9,0.2,8.9,4,9.4,8.9l8.1,93c0.2,2.4-0.5,4.7-2.1,6.5C177.8,248.5,175.7,249.4,173.5,249.4z M53,139.7c-1.8,0-3.6,0.7-4.8,2.1&#10;&#9;&#9;c-1.3,1.5-2,3.5-1.8,5.5l8.1,93c0.4,4.3,3.8,7.6,8.1,7.7h110.9c1.8,0,3.6-0.7,4.9-2.1c1.3-1.5,2-3.5,1.8-5.5l-8.1-93l0,0&#10;&#9;&#9;c-0.4-4.2-3.8-7.6-8.1-7.7L53,139.7z"/>
	<path class="st0_coding-2-31" d="M173,147l7.8,88.8c0.5,3.9-2.2,7.4-6,7.9c-0.3,0-0.6,0.1-1,0.1H68c-4.4-0.2-8-3.6-8.3-8L51.8,147&#10;&#9;&#9;c-0.5-3.8,2.2-7.4,6-7.9c0.3,0,0.6-0.1,1-0.1h105.9C169.1,139.2,172.6,142.6,173,147z"/>
	<path class="st1_coding-2-31" d="M173.8,244.4H68c-4.7-0.2-8.6-3.8-9-8.5l-7.8-88.8c-0.3-2.3,0.5-4.5,2-6.2c1.4-1.6,3.5-2.4,5.6-2.4h105.9&#10;&#9;&#9;c4.7,0.2,8.6,3.8,9,8.5l0,0l7.8,88.8c0.3,2.3-0.5,4.5-2,6.2C178,243.6,176,244.4,173.8,244.4z M58.8,139.7c-1.8,0-3.4,0.7-4.6,2&#10;&#9;&#9;c-1.3,1.4-1.9,3.3-1.7,5.3l7.8,88.8c0.3,4.1,3.7,7.2,7.7,7.3h105.8c1.8,0,3.4-0.7,4.6-2c1.3-1.4,1.9-3.3,1.7-5.2l-7.8-88.8&#10;&#9;&#9;c-0.3-4-3.6-7.2-7.7-7.4L58.8,139.7z"/>
	<path class="st0_coding-2-31" d="M179.5,220.9l1.3,14.9c0.5,3.9-2.2,7.4-6,7.9c-0.3,0-0.6,0.1-1,0.1H68c-4.4-0.2-8-3.6-8.3-8l-1.3-14.9H179.5z"/>
	<path class="st1_coding-2-31" d="M173.8,244.4H68c-4.7-0.2-8.6-3.8-9-8.5L57.7,221c0-0.2,0-0.4,0.2-0.5c0.1-0.1,0.3-0.2,0.5-0.2h121.2&#10;&#9;&#9;c0.3,0,0.6,0.3,0.6,0.6l1.3,14.9c0.3,2.3-0.5,4.5-2,6.2C178,243.6,175.9,244.4,173.8,244.4z M59,221.6l1.2,14.2&#10;&#9;&#9;c0.3,4.1,3.7,7.2,7.8,7.4h105.8c1.8,0,3.4-0.7,4.6-2c1.3-1.4,1.9-3.3,1.7-5.2l-1.2-14.3H59z"/>
	
		<ellipse transform="matrix(0.8307 -0.5567 0.5567 0.8307 -109.0576 106.0802)" class="st0_coding-2-31" cx="119.9" cy="232.3" rx="4.8" ry="5.3"/>
	<path class="st1_coding-2-31" d="M120.3,238.1c-3.2-0.1-5.7-2.6-6-5.7c-0.2-1.5,0.3-3.1,1.4-4.2c1-1.1,2.3-1.7,3.8-1.6c3.2,0.1,5.7,2.6,6,5.7&#10;&#9;&#9;l0,0c0.2,1.5-0.3,3.1-1.4,4.2C123.2,237.6,121.8,238.2,120.3,238.1z M119.4,227.8c-1.1,0-2.1,0.4-2.8,1.2c-0.8,0.9-1.1,2.1-1,3.2&#10;&#9;&#9;c0.2,2.5,2.2,4.4,4.8,4.6c1.1,0,2.1-0.4,2.8-1.2c0.8-0.9,1.1-2.1,1-3.2l0,0C124,229.9,121.9,228,119.4,227.8z"/>
	<path class="st1_coding-2-31" d="M60.3,145h103.8c2.3,0.1,4.1,1.9,4.3,4.1l5.5,62.6c0.3,2-1.2,3.8-3.2,4.1c-0.1,0-0.3,0-0.5,0H66.5&#10;&#9;&#9;c-2.3-0.1-4.1-1.9-4.3-4.1l-5.5-62.6c-0.3-2,1.1-3.8,3.1-4.1C60,145,60.2,145,60.3,145z"/>
	<path class="st0_coding-2-31" d="M77.8,152.7H67.5c-0.4,0-0.7-0.3-0.7-0.6c0-0.4,0.3-0.7,0.7-0.7h10.3c0.4,0,0.7,0.3,0.7,0.7&#10;&#9;&#9;C78.5,152.4,78.2,152.7,77.8,152.7z"/>
	<path class="st2_coding-2-31 targetColor" d="M101.1,152.7H80.5c-0.4,0-0.7-0.3-0.7-0.6c0-0.4,0.3-0.7,0.7-0.7h20.6c0.4,0,0.7,0.3,0.7,0.7&#10;&#9;&#9;C101.7,152.4,101.4,152.7,101.1,152.7z" style="fill: rgb(157, 186, 255);"/>
	<path class="st2_coding-2-31 targetColor" d="M108.3,156.7H87.8c-0.4,0-0.7-0.3-0.7-0.6c0-0.4,0.3-0.7,0.7-0.7l0,0h20.6c0.4,0,0.7,0.3,0.7,0.7&#10;&#9;&#9;C109,156.4,108.7,156.7,108.3,156.7z" style="fill: rgb(157, 186, 255);"/>
	<path class="st0_coding-2-31" d="M80.4,156.7H70.1c-0.4,0-0.7-0.3-0.7-0.6c0-0.4,0.3-0.7,0.7-0.7h10.3c0.4,0,0.7,0.3,0.7,0.7&#10;&#9;&#9;C81,156.4,80.7,156.7,80.4,156.7z"/>
	<path class="st0_coding-2-31" d="M83,160.8H72.7c-0.4,0-0.7-0.3-0.7-0.6c0-0.4,0.3-0.7,0.7-0.7H83c0.4,0,0.7,0.3,0.7,0.7&#10;&#9;&#9;C83.7,160.5,83.4,160.8,83,160.8z"/>
	<path class="st2_coding-2-31 targetColor" d="M112.2,160.8H86.4c-0.4,0-0.7-0.3-0.7-0.6c0-0.4,0.3-0.7,0.7-0.7l0,0h25.8c0.4,0,0.7,0.3,0.7,0.7&#10;&#9;&#9;C112.8,160.5,112.5,160.8,112.2,160.8z" style="fill: rgb(157, 186, 255);"/>
	<path class="st0_coding-2-31" d="M85.6,164.8H75.2c-0.4,0-0.7-0.3-0.7-0.7c0-0.4,0.3-0.6,0.7-0.6l0,0h10.3c0.4,0,0.7,0.3,0.7,0.6&#10;&#9;&#9;C86.2,164.5,85.9,164.8,85.6,164.8z"/>
	<path class="st2_coding-2-31 targetColor" d="M117.7,164.8H87c-0.4,0-0.7-0.3-0.7-0.7c0-0.4,0.3-0.6,0.7-0.6h30.7c0.4,0,0.7,0.3,0.7,0.6&#10;&#9;&#9;C118.3,164.5,118,164.8,117.7,164.8L117.7,164.8z" style="fill: rgb(157, 186, 255);"/>
	<path class="st0_coding-2-31" d="M83,168.8H72.7c-0.4,0-0.7-0.3-0.7-0.7c0-0.4,0.3-0.6,0.7-0.6l0,0H83c0.4,0,0.7,0.3,0.7,0.6&#10;&#9;&#9;C83.7,168.5,83.4,168.8,83,168.8z"/>
	<path class="st2_coding-2-31 targetColor" d="M101.7,168.8H85.1c-0.4,0-0.7-0.3-0.7-0.7c0-0.4,0.3-0.6,0.7-0.6h16.6c0.4,0,0.7,0.3,0.7,0.6&#10;&#9;&#9;C102.4,168.5,102.1,168.8,101.7,168.8z" style="fill: rgb(157, 186, 255);"/>
	<path class="st2_coding-2-31 targetColor" d="M124.7,168.8h-16.6c-0.4,0-0.7-0.3-0.7-0.7c0-0.4,0.3-0.6,0.7-0.6h16.6c0.4,0,0.7,0.3,0.7,0.6&#10;&#9;&#9;C125.3,168.5,125,168.8,124.7,168.8z" style="fill: rgb(157, 186, 255);"/>
	<path class="st0_coding-2-31" d="M83.2,172.9H72.8c-0.4,0-0.7-0.3-0.7-0.6c0-0.4,0.3-0.7,0.7-0.7l0,0h10.3c0.4,0,0.7,0.3,0.7,0.7&#10;&#9;&#9;C83.8,172.6,83.5,172.9,83.2,172.9z"/>
	<path class="st2_coding-2-31 targetColor" d="M101.9,172.9H87.4c-0.4,0-0.7-0.3-0.7-0.6c0-0.4,0.3-0.7,0.7-0.7h14.5c0.4,0,0.7,0.3,0.7,0.7&#10;&#9;&#9;C102.5,172.6,102.2,172.9,101.9,172.9z" style="fill: rgb(157, 186, 255);"/>
	<path class="st2_coding-2-31 targetColor" d="M110.3,172.9h-5.9c-0.4,0-0.7-0.3-0.7-0.6c0-0.4,0.3-0.7,0.7-0.7l0,0h5.9c0.4,0,0.7,0.3,0.7,0.7&#10;&#9;&#9;C110.9,172.6,110.6,172.9,110.3,172.9z" style="fill: rgb(157, 186, 255);"/>
	<path class="st0_coding-2-31" d="M83.3,176.9H73c-0.4,0-0.7-0.3-0.7-0.6c0-0.4,0.3-0.7,0.7-0.7l0,0h10.3c0.4,0,0.7,0.3,0.7,0.7&#10;&#9;&#9;C84,176.6,83.7,176.9,83.3,176.9z"/>
	<path class="st2_coding-2-31 targetColor" d="M107.2,176.9H86.1c-0.4,0-0.7-0.3-0.7-0.6c0-0.4,0.3-0.7,0.7-0.7h21.2c0.4,0,0.7,0.3,0.7,0.7&#10;&#9;&#9;C107.9,176.6,107.6,176.9,107.2,176.9z" style="fill: rgb(157, 186, 255);"/>
	<path class="st2_coding-2-31 targetColor" d="M120.1,176.9h-10.3c-0.4,0-0.7-0.3-0.7-0.6c0-0.4,0.3-0.7,0.7-0.7l0,0h10.3c0.4,0,0.7,0.3,0.7,0.7&#10;&#9;&#9;C120.7,176.6,120.4,176.9,120.1,176.9z" style="fill: rgb(157, 186, 255);"/>
	<path class="st0_coding-2-31" d="M76.2,181h-5.5c-0.4,0-0.7-0.3-0.7-0.6c0-0.4,0.3-0.7,0.7-0.7h5.5c0.4,0,0.7,0.3,0.7,0.7&#10;&#9;&#9;C76.8,180.7,76.6,181,76.2,181z"/>
	<path class="st2_coding-2-31 targetColor" d="M104.7,181H80.7c-0.4,0-0.7-0.3-0.7-0.6c0-0.4,0.3-0.7,0.7-0.7l0,0h23.9c0.4,0,0.7,0.3,0.7,0.7&#10;&#9;&#9;C105.3,180.7,105,181,104.7,181z" style="fill: rgb(157, 186, 255);"/>
	<path class="st0_coding-2-31" d="M81.2,185H70.9c-0.4,0-0.7-0.3-0.7-0.6c0-0.4,0.3-0.7,0.7-0.7l0,0h10.3c0.4,0,0.7,0.3,0.7,0.7&#10;&#9;&#9;C81.9,184.7,81.6,185,81.2,185z"/>
	<path class="st0_coding-2-31" d="M93.2,189H72.6c-0.4,0-0.7-0.3-0.7-0.6c0-0.4,0.3-0.7,0.7-0.7l0,0h20.6c0.4,0,0.7,0.3,0.7,0.7&#10;&#9;&#9;C93.8,188.7,93.5,189,93.2,189z"/>
	<path class="st2_coding-2-31 targetColor" d="M110.9,189H96.6c-0.4,0-0.7-0.3-0.7-0.6c0-0.4,0.3-0.7,0.7-0.7l0,0h14.3c0.4,0,0.7,0.3,0.7,0.7&#10;&#9;&#9;C111.6,188.7,111.3,189,110.9,189z" style="fill: rgb(157, 186, 255);"/>
	<path class="st2_coding-2-31 targetColor" d="M130.7,189H113c-0.4,0-0.7-0.3-0.7-0.6c0-0.4,0.3-0.7,0.7-0.7l0,0h17.7c0.4,0,0.7,0.3,0.7,0.7&#10;&#9;&#9;C131.4,188.7,131.1,189,130.7,189L130.7,189z" style="fill: rgb(157, 186, 255);"/>
	<path class="st0_coding-2-31" d="M103.7,193.1h-30c-0.4,0-0.7-0.3-0.7-0.6c0-0.4,0.3-0.7,0.7-0.7l0,0h30c0.4,0,0.7,0.3,0.7,0.7&#10;&#9;&#9;C104.3,192.8,104,193.1,103.7,193.1z"/>
	<path class="st2_coding-2-31 targetColor" d="M119.2,193.1h-13.5c-0.4,0-0.7-0.3-0.7-0.6c0-0.4,0.3-0.7,0.7-0.7h13.5c0.4,0,0.7,0.3,0.7,0.7&#10;&#9;&#9;C119.9,192.8,119.6,193.1,119.2,193.1z" style="fill: rgb(157, 186, 255);"/>
	<path class="st2_coding-2-31 targetColor" d="M161.7,193.1h-40.2c-0.4,0-0.7-0.3-0.7-0.6c0-0.4,0.3-0.7,0.7-0.7h40.2c0.4,0,0.7,0.3,0.7,0.7&#10;&#9;&#9;C162.3,192.8,162,193.1,161.7,193.1z" style="fill: rgb(157, 186, 255);"/>
	<path class="st0_coding-2-31" d="M87.9,197.1H73.7c-0.4,0-0.7-0.3-0.7-0.6c0-0.4,0.3-0.7,0.7-0.7h14.2c0.4,0,0.7,0.3,0.7,0.7&#10;&#9;&#9;C88.5,196.8,88.2,197.1,87.9,197.1z"/>
	<path class="st2_coding-2-31 targetColor" d="M101.2,197.1H90.7c-0.4,0-0.7-0.3-0.7-0.6c0-0.4,0.3-0.7,0.7-0.7l0,0h10.5c0.4,0,0.7,0.3,0.7,0.7&#10;&#9;&#9;C101.8,196.8,101.5,197.1,101.2,197.1z" style="fill: rgb(157, 186, 255);"/>
	<path class="st2_coding-2-31 targetColor" d="M114.4,197.1H104c-0.4,0-0.7-0.3-0.7-0.6c0-0.4,0.3-0.7,0.7-0.7l0,0h10.4c0.4,0,0.7,0.3,0.7,0.7&#10;&#9;&#9;C115.1,196.8,114.8,197.1,114.4,197.1L114.4,197.1z" style="fill: rgb(157, 186, 255);"/>
	<path class="st0_coding-2-31" d="M99,201.1H73.8c-0.4,0-0.7-0.3-0.7-0.7c0-0.4,0.3-0.6,0.7-0.6H99c0.4,0,0.7,0.3,0.7,0.6&#10;&#9;&#9;C99.7,200.8,99.4,201.1,99,201.1z"/>
	<path class="st2_coding-2-31 targetColor" d="M114.6,201.1H102c-0.4,0-0.7-0.3-0.7-0.7c0-0.4,0.3-0.6,0.7-0.6l0,0h12.6c0.4,0,0.7,0.3,0.7,0.6&#10;&#9;&#9;C115.2,200.8,115,201.1,114.6,201.1z" style="fill: rgb(157, 186, 255);"/>
	<path class="st2_coding-2-31 targetColor" d="M136.8,201.1h-19.1c-0.4,0-0.7-0.3-0.7-0.7c0-0.4,0.3-0.6,0.7-0.6l0,0h19.1c0.4,0,0.7,0.3,0.7,0.6&#10;&#9;&#9;C137.5,200.8,137.2,201.1,136.8,201.1z" style="fill: rgb(157, 186, 255);"/>
	<path class="st2_coding-2-31 targetColor" d="M157.9,201.1h-19.1c-0.4,0-0.6-0.3-0.6-0.7c0-0.4,0.3-0.6,0.6-0.6h19.1c0.4,0,0.6,0.3,0.6,0.6&#10;&#9;&#9;C158.6,200.8,158.3,201.1,157.9,201.1z" style="fill: rgb(157, 186, 255);"/>
	<path class="st0_coding-2-31" d="M95.3,205.2h-15c-0.4,0-0.7-0.3-0.7-0.6c0-0.4,0.3-0.7,0.7-0.7l0,0h15c0.4,0,0.7,0.3,0.7,0.7&#10;&#9;&#9;C96,204.9,95.7,205.2,95.3,205.2z"/>
	<path class="st2_coding-2-31 targetColor" d="M113.1,205.2h-15c-0.4,0-0.7-0.3-0.7-0.6c0-0.4,0.3-0.7,0.7-0.7h15c0.4,0,0.7,0.3,0.7,0.7&#10;&#9;&#9;C113.8,204.9,113.5,205.2,113.1,205.2z" style="fill: rgb(157, 186, 255);"/>
	<path class="st2_coding-2-31 targetColor" d="M131,205.2h-15c-0.4,0-0.7-0.3-0.7-0.6c0-0.4,0.3-0.7,0.7-0.7l0,0h15c0.4,0,0.6,0.3,0.6,0.7&#10;&#9;&#9;C131.6,204.9,131.4,205.2,131,205.2z" style="fill: rgb(157, 186, 255);"/>
	<path class="st2_coding-2-31 targetColor" d="M149.6,205.6h-15c-0.4,0-0.6-0.3-0.6-0.7c0-0.4,0.3-0.6,0.6-0.6h15c0.4,0,0.6,0.3,0.6,0.6&#10;&#9;&#9;C150.2,205.3,149.9,205.6,149.6,205.6z" style="fill: rgb(157, 186, 255);"/>
	<path class="st0_coding-2-31" d="M93.1,209.2H82.8c-0.4,0-0.7-0.3-0.7-0.6c0-0.4,0.3-0.7,0.7-0.7l0,0h10.3c0.4,0,0.7,0.3,0.7,0.7&#10;&#9;&#9;C93.7,208.9,93.4,209.2,93.1,209.2z"/>
	<path class="st2_coding-2-31 targetColor" d="M105.8,209.2H95.5c-0.4,0-0.7-0.3-0.7-0.6c0-0.4,0.3-0.7,0.7-0.7l0,0h10.3c0.4,0,0.7,0.3,0.7,0.7&#10;&#9;&#9;C106.5,208.9,106.2,209.2,105.8,209.2z" style="fill: rgb(157, 186, 255);"/>
	<path class="st2_coding-2-31 targetColor" d="M129.7,209.6L129.7,209.6l-21.3-0.4c-0.4,0-0.7-0.3-0.7-0.6c0-0.4,0.3-0.7,0.7-0.7l0,0l21.3,0.4&#10;&#9;&#9;c0.4,0,0.7,0.3,0.7,0.7C130.3,209.3,130,209.6,129.7,209.6L129.7,209.6z" style="fill: rgb(157, 186, 255);"/>
	<path class="st2_coding-2-31 targetColor" d="M135.8,164.8h-14c-0.4,0-0.7-0.3-0.7-0.7c0-0.4,0.3-0.6,0.7-0.6h14c0.4,0,0.6,0.3,0.6,0.6&#10;&#9;&#9;C136.5,164.5,136.2,164.8,135.8,164.8z" style="fill: rgb(157, 186, 255);"/>
	<path class="st2_coding-2-31 targetColor" d="M146.1,164.8c-1.7,0.1-3.3,0-5-0.1c-0.3-0.1-0.5-0.5-0.4-0.8c0.1-0.3,0.4-0.5,0.7-0.4c0.7,0.1,9.8,0,15.8,0&#10;&#9;&#9;l0,0c0.4,0,0.6,0.3,0.6,0.6c0,0.4-0.3,0.6-0.6,0.6c0,0,0,0,0,0C152,164.8,148.5,164.8,146.1,164.8z" style="fill: rgb(157, 186, 255);"/>
	<path class="st2_coding-2-31 targetColor" d="M133.3,156.7H113c-0.4,0-0.7-0.3-0.7-0.6c0-0.4,0.3-0.7,0.7-0.7l0,0h20.3c0.4,0,0.7,0.3,0.7,0.7&#10;&#9;&#9;C133.9,156.4,133.6,156.7,133.3,156.7z" style="fill: rgb(157, 186, 255);"/>
	<path class="st2_coding-2-31 targetColor" d="M157.5,156.7h-20.2c-0.4,0-0.7-0.3-0.7-0.6c0-0.4,0.3-0.7,0.7-0.7h20.2c0.4,0,0.7,0.3,0.7,0.7&#10;&#9;&#9;C158.1,156.4,157.8,156.7,157.5,156.7z" style="fill: rgb(157, 186, 255);"/>
	<path class="st2_coding-2-31 targetColor" d="M114.4,152.7c-4.1,0-7,0-7.1,0c-0.4,0-0.6-0.4-0.6-0.7c0-0.3,0.4-0.6,0.7-0.6c0.7,0,17,0,23.3,0l0,0&#10;&#9;&#9;c0.4,0,0.6,0.3,0.6,0.6c0,0.4-0.3,0.7-0.6,0.7L114.4,152.7z" style="fill: rgb(157, 186, 255);"/>
	<path class="st0_coding-2-31" d="M136.3,152.7c-0.3,0-0.5-0.1-0.6-0.4c-0.2-0.3,0-0.7,0.3-0.9c0.2-0.1,0.4-0.2,14.1-0.1c0.3,0,0.6,0.3,0.6,0.6&#10;&#9;&#9;c0,0,0,0,0,0c0,0.4-0.3,0.6-0.7,0.6c-4.9-0.1-12.9-0.1-13.7,0H136.3z"/>
	<path class="st2_coding-2-31 targetColor" d="M117.9,181h-10.4c-0.4,0-0.7-0.3-0.7-0.6c0-0.4,0.3-0.7,0.7-0.7h10.4c0.4,0,0.7,0.3,0.7,0.7&#10;&#9;&#9;C118.5,180.7,118.2,181,117.9,181z" style="fill: rgb(157, 186, 255);"/>
	<path class="st2_coding-2-31 targetColor" d="M94.1,185h-7.7c-0.4,0-0.7-0.3-0.7-0.6c0-0.4,0.3-0.7,0.7-0.7h7.7c0.4,0,0.7,0.3,0.7,0.7&#10;&#9;&#9;C94.7,184.7,94.4,185,94.1,185z" style="fill: rgb(157, 186, 255);"/>
	<path class="st0_coding-2-31" d="M115.2,185H97c-0.4,0-0.7-0.3-0.7-0.6c0-0.4,0.3-0.7,0.7-0.7h18.3c0.4,0,0.7,0.3,0.7,0.7&#10;&#9;&#9;C115.9,184.7,115.6,185,115.2,185L115.2,185z"/>
	<path class="st2_coding-2-31 targetColor" d="M154.3,185h-35.4c-0.4,0-0.7-0.3-0.7-0.6c0-0.4,0.3-0.7,0.7-0.7h35.4c0.4,0,0.6,0.3,0.6,0.7&#10;&#9;&#9;C154.9,184.7,154.6,185,154.3,185z" style="fill: rgb(157, 186, 255);"/>
</g>
<g id="Screen_2_coding-2-31">
	<path class="st0_coding-2-31" d="M348.1,243.8c0,0,1.7,41.2-2.9,54.8h-21.1c-2.2,0-4.2,1.5-4.9,3.6l-1.1,3.8h53.8c4.1-2.7,7.5-6.2,10-10.3&#10;&#9;&#9;c3.6-6.4,1.4-51.8,1.4-51.8H348.1z"/>
	<path class="st1_coding-2-31" d="M371.9,306.6h-53.8c-0.2,0-0.4-0.1-0.5-0.3c-0.1-0.2-0.2-0.4-0.1-0.6l1.1-3.8c0.7-2.4,2.9-4.1,5.5-4.1h20.7&#10;&#9;&#9;c4.4-13.7,2.7-53.7,2.7-54.1c0-0.2,0.1-0.3,0.2-0.5c0.1-0.1,0.3-0.2,0.5-0.2h35.1c0.3,0,0.6,0.3,0.6,0.6c0.1,1.9,2.2,45.8-1.5,52.2&#10;&#9;&#9;c-2.6,4.2-6,7.8-10.2,10.5C372.1,306.5,372,306.6,371.9,306.6z M319,305.3h52.7c3.9-2.6,7.2-6,9.6-10c2.7-4.8,2.1-35,1.3-50.9&#10;&#9;&#9;h-33.8c0.2,5.6,1.4,41.6-3,54.3c-0.1,0.3-0.3,0.4-0.6,0.4h-21.1c-1.9,0-3.7,1.3-4.2,3.1L319,305.3z"/>
	<path class="st1_coding-2-31" d="M380.6,287.7c0,8.6-2.6,11.2-6,11.2h-13.5c-1.9,0-3.6,1.2-4.3,3l-1.5,4.1h20.8c5.3,0,9.1-8.1,9.3-16.7&#10;&#9;&#9;s0-45.5,0-45.5h-4.6C380.8,243.8,380.6,279.1,380.6,287.7z"/>
	<path class="st1_coding-2-31" d="M376.1,306.6h-20.8c-0.2,0-0.4-0.1-0.5-0.3c-0.1-0.2-0.1-0.4-0.1-0.6l1.5-4.1c0.8-2,2.7-3.4,4.9-3.4h13.5&#10;&#9;&#9;c1.3,0,5.4,0,5.4-10.5c0-8.5,0.2-43.6,0.2-43.9c0-0.4,0.3-0.6,0.6-0.6h4.6c0.4,0,0.6,0.3,0.6,0.6c0,0.4,0.2,37,0,45.5&#10;&#9;&#9;S382.1,306.6,376.1,306.6z M356.3,305.3h19.8c4.6,0,8.5-7.2,8.6-16c0.1-7.9,0-39.9,0-44.8h-3.3c0,4.9-0.2,35.4-0.2,43.3&#10;&#9;&#9;s-2.2,11.8-6.7,11.8h-13.5c-1.6,0-3.1,1-3.6,2.5L356.3,305.3z"/>
	<path class="st1_coding-2-31" d="M308.1,147.4l-8.1,93c-0.5,4,2.3,7.7,6.4,8.3c0.3,0,0.6,0.1,0.9,0.1h110.9c4.6-0.2,8.3-3.7,8.7-8.3l8.1-93&#10;&#9;&#9;c0.5-4-2.3-7.7-6.3-8.3c-0.3,0-0.6-0.1-0.9-0.1H316.8C312.2,139.3,308.4,142.8,308.1,147.4z"/>
	<path class="st1_coding-2-31" d="M418.1,249.4H307.2c-2.2,0-4.3-0.9-5.8-2.5c-1.6-1.8-2.4-4.1-2.1-6.5l8.1-93c0.4-4.9,4.5-8.7,9.4-8.9h110.9&#10;&#9;&#9;c2.2,0,4.3,0.9,5.8,2.5c1.6,1.8,2.4,4.1,2.1,6.5l-8.1,93C427,245.4,423,249.2,418.1,249.4z M316.8,139.7c-4.3,0.2-7.7,3.5-8.1,7.7&#10;&#9;&#9;l0,0l-8.1,93c-0.2,2,0.4,4,1.8,5.5c1.2,1.4,3,2.1,4.9,2.1h110.9c4.3-0.2,7.7-3.5,8.1-7.7l8.1-93c0.2-2-0.4-4-1.8-5.5&#10;&#9;&#9;c-1.2-1.4-3-2.1-4.9-2.1L316.8,139.7z M308.1,147.4L308.1,147.4z"/>
	<path class="st0_coding-2-31" d="M307.7,147l-7.8,88.8c-0.5,3.9,2.2,7.4,6,7.9c0.3,0,0.6,0.1,0.9,0.1h105.9c4.4-0.2,8-3.6,8.3-8l7.8-88.8&#10;&#9;&#9;c0.5-3.8-2.2-7.4-6-7.9c-0.3,0-0.7-0.1-1-0.1H316C311.6,139.2,308.1,142.6,307.7,147z"/>
	<path class="st1_coding-2-31" d="M412.7,244.4H306.9c-2.1,0-4.1-0.9-5.6-2.4c-1.5-1.7-2.2-4-2-6.2L307,147l0,0c0.4-4.7,4.3-8.4,9-8.5h105.9&#10;&#9;&#9;c2.1,0,4.1,0.9,5.6,2.4c1.5,1.7,2.2,4,2,6.2l-7.8,88.8C421.3,240.6,417.4,244.2,412.7,244.4z M308.3,147.1l-7.8,88.8&#10;&#9;&#9;c-0.2,1.9,0.4,3.8,1.7,5.2c1.2,1.3,2.9,2,4.6,2h105.9c4.1-0.1,7.4-3.3,7.7-7.4l7.8-88.8c0.2-1.9-0.4-3.8-1.7-5.2&#10;&#9;&#9;c-1.2-1.3-2.9-2-4.6-2H316C311.9,139.9,308.6,143.1,308.3,147.1L308.3,147.1z"/>
	<path class="st0_coding-2-31" d="M301.2,220.9l-1.3,14.9c-0.5,3.9,2.2,7.4,6,7.9c0.3,0,0.6,0.1,0.9,0.1h105.9c4.4-0.2,8-3.6,8.3-8l1.3-14.9&#10;&#9;&#9;H301.2z"/>
	<path class="st1_coding-2-31" d="M412.7,244.4H306.9c-2.1,0-4.1-0.9-5.6-2.4c-1.5-1.7-2.2-4-2-6.2l1.3-14.9c0-0.3,0.3-0.6,0.6-0.6h121.1&#10;&#9;&#9;c0.2,0,0.3,0.1,0.5,0.2c0.1,0.1,0.2,0.3,0.2,0.5l-1.3,14.9C421.3,240.6,417.5,244.2,412.7,244.4z M301.8,221.6l-1.2,14.3&#10;&#9;&#9;c-0.2,1.9,0.4,3.8,1.7,5.2c1.2,1.3,2.9,2,4.6,2h105.9c4.1-0.1,7.4-3.3,7.7-7.4l1.2-14.2H301.8z"/>
	
		<ellipse transform="matrix(0.5567 -0.8307 0.8307 0.5567 -33.0505 402.6997)" class="st0_coding-2-31" cx="360.8" cy="232.3" rx="5.3" ry="4.8"/>
	<path class="st1_coding-2-31" d="M360.4,238.1c-1.4,0-2.8-0.6-3.8-1.6c-1-1.1-1.5-2.7-1.4-4.2c0.3-3.2,2.9-5.6,6-5.7c1.4,0,2.8,0.6,3.8,1.6&#10;&#9;&#9;c1,1.2,1.5,2.7,1.4,4.2C366.1,235.6,363.5,238,360.4,238.1z M361.3,227.8c-2.5,0.1-4.5,2.1-4.8,4.6c-0.1,1.2,0.2,2.3,1,3.2&#10;&#9;&#9;c0.7,0.8,1.7,1.2,2.8,1.2c2.5-0.1,4.5-2.1,4.8-4.6c0.1-1.2-0.2-2.3-1-3.2C363.3,228.3,362.3,227.8,361.3,227.8z"/>
	<path class="st1_coding-2-31" d="M420.4,145H316.5c-2.3,0.1-4.1,1.9-4.3,4.1l-5.5,62.6c-0.3,2,1.1,3.8,3.1,4.1c0.2,0,0.3,0,0.5,0h103.8&#10;&#9;&#9;c2.3-0.1,4.1-1.9,4.3-4.1l5.5-62.6c0.3-2-1.1-3.8-3.1-4.1C420.7,145,420.5,145,420.4,145z"/>
	<path class="st0_coding-2-31" d="M333.9,152.7h-10.3c-0.4,0-0.6-0.3-0.6-0.6c0-0.4,0.3-0.7,0.6-0.7h10.3c0.4,0,0.6,0.3,0.6,0.7&#10;&#9;&#9;C334.5,152.4,334.2,152.7,333.9,152.7z"/>
	<path class="st2_coding-2-31 targetColor" d="M357.1,152.7h-20.6c-0.4,0-0.6-0.3-0.6-0.6c0-0.4,0.3-0.7,0.6-0.7h20.6c0.4,0,0.6,0.3,0.6,0.7&#10;&#9;&#9;C357.8,152.4,357.5,152.7,357.1,152.7z" style="fill: rgb(157, 186, 255);"/>
	<path class="st2_coding-2-31 targetColor" d="M363.5,156.7h-20.6c-0.4,0-0.6-0.3-0.6-0.6c0-0.4,0.3-0.7,0.6-0.7h20.6c0.4,0,0.6,0.3,0.6,0.7&#10;&#9;&#9;C364.2,156.4,363.9,156.7,363.5,156.7z" style="fill: rgb(157, 186, 255);"/>
	<path class="st0_coding-2-31" d="M335.6,156.7h-10.3c-0.4,0-0.6-0.3-0.6-0.6c0-0.4,0.3-0.7,0.6-0.7l0,0h10.3c0.4,0,0.6,0.3,0.6,0.7&#10;&#9;&#9;C336.2,156.4,335.9,156.7,335.6,156.7z"/>
	<path class="st0_coding-2-31" d="M337.3,160.8h-10.3c-0.4,0-0.6-0.3-0.6-0.6c0-0.4,0.3-0.7,0.6-0.7h10.3c0.4,0,0.6,0.3,0.6,0.7&#10;&#9;&#9;C337.9,160.5,337.6,160.8,337.3,160.8L337.3,160.8z"/>
	<path class="st2_coding-2-31 targetColor" d="M366.5,160.8h-25.8c-0.4,0-0.6-0.3-0.6-0.6c0-0.4,0.3-0.7,0.6-0.7h25.8c0.4,0,0.6,0.3,0.6,0.7&#10;&#9;&#9;C367.1,160.5,366.8,160.8,366.5,160.8z" style="fill: rgb(157, 186, 255);"/>
	<path class="st0_coding-2-31" d="M338.9,164.8h-10.3c-0.4,0-0.6-0.3-0.6-0.7c0-0.4,0.3-0.6,0.6-0.6h10.3c0.4,0,0.6,0.3,0.6,0.6&#10;&#9;&#9;C339.6,164.5,339.3,164.8,338.9,164.8z"/>
	<path class="st2_coding-2-31 targetColor" d="M371.1,164.8h-30.6c-0.4,0-0.6-0.3-0.6-0.7c0-0.4,0.3-0.6,0.6-0.6l0,0h30.6c0.4,0,0.6,0.3,0.6,0.6&#10;&#9;&#9;C371.7,164.5,371.4,164.8,371.1,164.8z" style="fill: rgb(157, 186, 255);"/>
	<path class="st0_coding-2-31" d="M335.5,168.8h-10.3c-0.4,0-0.6-0.3-0.6-0.7c0-0.4,0.3-0.6,0.6-0.6l0,0h10.3c0.4,0,0.6,0.3,0.6,0.6&#10;&#9;&#9;C336.1,168.5,335.8,168.8,335.5,168.8L335.5,168.8z"/>
	<path class="st2_coding-2-31 targetColor" d="M354.2,168.8h-16.6c-0.4,0-0.6-0.3-0.6-0.7c0-0.4,0.3-0.6,0.6-0.6h16.6c0.4,0,0.6,0.3,0.6,0.6&#10;&#9;&#9;C354.8,168.5,354.5,168.8,354.2,168.8z" style="fill: rgb(157, 186, 255);"/>
	<path class="st2_coding-2-31 targetColor" d="M377.2,168.8h-16.6c-0.4,0-0.6-0.3-0.6-0.7c0-0.4,0.3-0.6,0.6-0.6l0,0h16.6c0.4,0,0.6,0.3,0.6,0.6&#10;&#9;&#9;C377.8,168.5,377.5,168.8,377.2,168.8z" style="fill: rgb(157, 186, 255);"/>
	<path class="st0_coding-2-31" d="M334.7,172.9h-10.3c-0.4,0-0.6-0.3-0.6-0.6c0-0.4,0.3-0.7,0.6-0.7h10.3c0.4,0,0.6,0.3,0.6,0.7&#10;&#9;&#9;C335.4,172.6,335.1,172.9,334.7,172.9z"/>
	<path class="st2_coding-2-31 targetColor" d="M353.5,172.9h-14.5c-0.4,0-0.6-0.3-0.6-0.6c0-0.4,0.3-0.7,0.6-0.7h14.5c0.4,0,0.6,0.3,0.6,0.7&#10;&#9;&#9;C354.1,172.6,353.8,172.9,353.5,172.9z" style="fill: rgb(157, 186, 255);"/>
	<path class="st2_coding-2-31 targetColor" d="M361.8,172.9h-5.9c-0.4,0-0.6-0.3-0.6-0.6c0-0.4,0.3-0.7,0.6-0.7h5.9c0.4,0,0.6,0.3,0.6,0.7&#10;&#9;&#9;C362.5,172.6,362.2,172.9,361.8,172.9z" style="fill: rgb(157, 186, 255);"/>
	<path class="st0_coding-2-31" d="M334,176.9h-10.3c-0.4,0-0.6-0.3-0.6-0.6c0-0.4,0.3-0.7,0.6-0.7H334c0.4,0,0.6,0.3,0.6,0.7&#10;&#9;&#9;C334.6,176.6,334.4,176.9,334,176.9z"/>
	<path class="st2_coding-2-31 targetColor" d="M357.9,176.9h-21.2c-0.4,0-0.6-0.3-0.6-0.6c0-0.4,0.3-0.7,0.6-0.7l0,0h21.2c0.4,0,0.6,0.3,0.6,0.7&#10;&#9;&#9;C358.6,176.6,358.3,176.9,357.9,176.9z" style="fill: rgb(157, 186, 255);"/>
	<path class="st2_coding-2-31 targetColor" d="M370.7,176.9h-10.3c-0.4,0-0.6-0.3-0.6-0.6c0-0.4,0.3-0.7,0.6-0.7h10.3c0.4,0,0.6,0.3,0.6,0.7&#10;&#9;&#9;C371.4,176.6,371.1,176.9,370.7,176.9L370.7,176.9z" style="fill: rgb(157, 186, 255);"/>
	<path class="st0_coding-2-31" d="M326,181h-5.5c-0.4,0-0.6-0.3-0.6-0.6c0-0.4,0.3-0.7,0.6-0.7l0,0h5.5c0.4,0,0.6,0.3,0.6,0.7&#10;&#9;&#9;C326.6,180.7,326.4,181,326,181z"/>
	<path class="st2_coding-2-31 targetColor" d="M354.4,181h-23.9c-0.4,0-0.6-0.3-0.6-0.6c0-0.4,0.3-0.7,0.6-0.7l0,0h23.9c0.4,0,0.6,0.3,0.6,0.7&#10;&#9;&#9;C355.1,180.7,354.8,181,354.4,181z" style="fill: rgb(157, 186, 255);"/>
	<path class="st0_coding-2-31" d="M330.1,185h-10.3c-0.4,0-0.6-0.3-0.6-0.6c0-0.4,0.3-0.7,0.6-0.7h10.3c0.4,0,0.6,0.3,0.6,0.7&#10;&#9;&#9;C330.7,184.7,330.4,185,330.1,185L330.1,185z"/>
	<path class="st0_coding-2-31" d="M341.1,189h-20.6c-0.4,0-0.6-0.3-0.6-0.6c0-0.4,0.3-0.7,0.6-0.7l0,0h20.6c0.4,0,0.6,0.3,0.6,0.7&#10;&#9;&#9;C341.8,188.7,341.5,189,341.1,189z"/>
	<path class="st2_coding-2-31 targetColor" d="M358.9,189h-14.3c-0.4,0-0.6-0.3-0.6-0.6c0-0.4,0.3-0.7,0.6-0.7l0,0h14.3c0.4,0,0.6,0.3,0.6,0.7&#10;&#9;&#9;C359.5,188.7,359.2,189,358.9,189z" style="fill: rgb(157, 186, 255);"/>
	<path class="st2_coding-2-31 targetColor" d="M378.6,189h-17.7c-0.4,0-0.6-0.3-0.6-0.6c0-0.4,0.3-0.7,0.6-0.7h17.7c0.4,0,0.6,0.3,0.6,0.7&#10;&#9;&#9;C379.3,188.7,379,189,378.6,189L378.6,189z" style="fill: rgb(157, 186, 255);"/>
	<path class="st0_coding-2-31" d="M350.7,193.1h-30c-0.4,0-0.6-0.3-0.6-0.6c0-0.4,0.3-0.7,0.6-0.7h30c0.4,0,0.6,0.3,0.6,0.7&#10;&#9;&#9;C351.4,192.8,351.1,193.1,350.7,193.1z"/>
	<path class="st2_coding-2-31 targetColor" d="M366.3,193.1h-13.5c-0.4,0-0.6-0.3-0.6-0.6c0-0.4,0.3-0.7,0.6-0.7l0,0h13.5c0.4,0,0.6,0.3,0.6,0.7&#10;&#9;&#9;C366.9,192.8,366.6,193.1,366.3,193.1z" style="fill: rgb(157, 186, 255);"/>
	<path class="st2_coding-2-31 targetColor" d="M408.7,193.1h-40.2c-0.4,0-0.6-0.3-0.6-0.6c0-0.4,0.3-0.7,0.6-0.7h40.2c0.4,0,0.6,0.3,0.6,0.7&#10;&#9;&#9;C409.4,192.8,409.1,193.1,408.7,193.1z" style="fill: rgb(157, 186, 255);"/>
	<path class="st0_coding-2-31" d="M334,197.1h-14.2c-0.4,0-0.6-0.3-0.6-0.6c0-0.4,0.3-0.7,0.6-0.7H334c0.4,0,0.6,0.3,0.6,0.7&#10;&#9;&#9;C334.6,196.8,334.4,197.1,334,197.1z"/>
	<path class="st2_coding-2-31 targetColor" d="M347.3,197.1h-10.5c-0.4,0-0.6-0.3-0.6-0.6c0-0.4,0.3-0.7,0.6-0.7h10.5c0.4,0,0.6,0.3,0.6,0.7&#10;&#9;&#9;C348,196.8,347.7,197.1,347.3,197.1L347.3,197.1z" style="fill: rgb(157, 186, 255);"/>
	<path class="st2_coding-2-31 targetColor" d="M360.6,197.1h-10.5c-0.4,0-0.6-0.3-0.6-0.6c0-0.4,0.3-0.7,0.6-0.7h10.5c0.4,0,0.6,0.3,0.6,0.7&#10;&#9;&#9;C361.2,196.8,360.9,197.1,360.6,197.1z" style="fill: rgb(157, 186, 255);"/>
	<path class="st0_coding-2-31" d="M344.2,201.1h-25.1c-0.4,0-0.6-0.3-0.6-0.7c0-0.4,0.3-0.6,0.6-0.6l0,0h25.1c0.4,0,0.6,0.3,0.6,0.6&#10;&#9;&#9;C344.9,200.8,344.6,201.1,344.2,201.1z"/>
	<path class="st2_coding-2-31 targetColor" d="M359.9,201.1h-12.6c-0.4,0-0.6-0.3-0.6-0.7c0-0.4,0.3-0.6,0.6-0.6h12.5c0.4,0,0.6,0.3,0.6,0.6&#10;&#9;&#9;C360.5,200.8,360.2,201.1,359.9,201.1L359.9,201.1z" style="fill: rgb(157, 186, 255);"/>
	<path class="st2_coding-2-31 targetColor" d="M382,201.1h-19.1c-0.4,0-0.6-0.3-0.6-0.7c0-0.4,0.3-0.6,0.6-0.6H382c0.4,0,0.6,0.3,0.6,0.6&#10;&#9;&#9;C382.7,200.8,382.4,201.1,382,201.1z" style="fill: rgb(157, 186, 255);"/>
	<path class="st2_coding-2-31 targetColor" d="M403.2,201.1h-19.1c-0.4,0-0.6-0.3-0.6-0.7c0-0.4,0.3-0.6,0.6-0.6h19.1c0.4,0,0.6,0.3,0.6,0.6&#10;&#9;&#9;C403.8,200.8,403.5,201.1,403.2,201.1z" style="fill: rgb(157, 186, 255);"/>
	<path class="st0_coding-2-31" d="M339.7,205.2h-15c-0.4,0-0.6-0.3-0.6-0.6c0-0.4,0.3-0.7,0.6-0.7l0,0h15c0.4,0,0.6,0.3,0.6,0.7&#10;&#9;&#9;C340.3,204.9,340,205.2,339.7,205.2z"/>
	<path class="st2_coding-2-31 targetColor" d="M357.5,205.2h-15c-0.4,0-0.6-0.3-0.6-0.6c0-0.4,0.3-0.7,0.6-0.7l0,0h15c0.4,0,0.6,0.3,0.6,0.7&#10;&#9;&#9;C358.1,204.9,357.8,205.2,357.5,205.2z" style="fill: rgb(157, 186, 255);"/>
	<path class="st2_coding-2-31 targetColor" d="M375.4,205.2h-15c-0.4,0-0.6-0.3-0.6-0.6c0-0.4,0.3-0.7,0.6-0.7l0,0h15c0.4,0,0.6,0.3,0.6,0.7&#10;&#9;&#9;C376,204.9,375.7,205.2,375.4,205.2z" style="fill: rgb(157, 186, 255);"/>
	<path class="st2_coding-2-31 targetColor" d="M393.8,205.6h-15c-0.4,0-0.6-0.3-0.6-0.7c0-0.4,0.3-0.6,0.6-0.6h15c0.4,0,0.6,0.3,0.6,0.6&#10;&#9;&#9;C394.5,205.3,394.2,205.6,393.8,205.6z" style="fill: rgb(157, 186, 255);"/>
	<path class="st0_coding-2-31" d="M336.5,209.2h-10.3c-0.4,0-0.6-0.3-0.6-0.6c0-0.4,0.3-0.7,0.6-0.7h10.3c0.4,0,0.6,0.3,0.6,0.7&#10;&#9;&#9;C337.2,208.9,336.9,209.2,336.5,209.2L336.5,209.2z"/>
	<path class="st2_coding-2-31 targetColor" d="M349.3,209.2h-10.3c-0.4,0-0.6-0.3-0.6-0.6c0-0.4,0.3-0.7,0.6-0.7h10.3c0.4,0,0.6,0.3,0.6,0.7&#10;&#9;&#9;C349.9,208.9,349.6,209.2,349.3,209.2z" style="fill: rgb(157, 186, 255);"/>
	<path class="st2_coding-2-31 targetColor" d="M373,209.6L373,209.6l-21.2-0.4c-0.4,0-0.6-0.3-0.6-0.7c0,0,0,0,0,0c0-0.3,0.2-0.6,0.6-0.6c0,0,0.1,0,0.1,0&#10;&#9;&#9;l21.2,0.4c0.4,0,0.6,0.3,0.6,0.7C373.7,209.3,373.4,209.6,373,209.6L373,209.6z" style="fill: rgb(157, 186, 255);"/>
	<path class="st2_coding-2-31 targetColor" d="M389.2,164.8h-14c-0.4,0-0.6-0.3-0.6-0.7c0-0.4,0.3-0.6,0.6-0.6l0,0h14c0.4,0,0.6,0.3,0.6,0.6&#10;&#9;&#9;C389.9,164.5,389.6,164.8,389.2,164.8z" style="fill: rgb(157, 186, 255);"/>
	<path class="st2_coding-2-31 targetColor" d="M399.5,164.8c-1.7,0.1-3.3,0-5-0.1c-0.3-0.1-0.6-0.4-0.5-0.8c0.1-0.3,0.4-0.6,0.8-0.5c0.7,0.1,9.8,0,15.8,0&#10;&#9;&#9;l0,0c0.4,0,0.6,0.3,0.6,0.6c0,0.4-0.3,0.6-0.6,0.6C405.4,164.8,401.9,164.8,399.5,164.8z" style="fill: rgb(157, 186, 255);"/>
	<path class="st2_coding-2-31 targetColor" d="M388.5,156.7h-20.3c-0.4,0-0.6-0.3-0.6-0.6c0-0.4,0.3-0.7,0.6-0.7h20.3c0.4,0,0.6,0.3,0.6,0.7&#10;&#9;&#9;C389.1,156.4,388.8,156.7,388.5,156.7z" style="fill: rgb(157, 186, 255);"/>
	<path class="st2_coding-2-31 targetColor" d="M412.7,156.7h-20.2c-0.4,0-0.6-0.3-0.6-0.6c0-0.4,0.3-0.7,0.6-0.7h20.2c0.4,0,0.6,0.3,0.6,0.7&#10;&#9;&#9;C413.3,156.4,413,156.7,412.7,156.7z" style="fill: rgb(157, 186, 255);"/>
	<path class="st2_coding-2-31 targetColor" d="M370.6,152.7c-4.1,0-7,0-7.2,0c-0.4,0-0.6-0.4-0.6-0.7c0-0.3,0.4-0.6,0.7-0.6c0.7,0,17,0,23.3,0l0,0&#10;&#9;&#9;c0.4,0,0.6,0.3,0.6,0.6c0,0.4-0.3,0.7-0.6,0.7L370.6,152.7z" style="fill: rgb(157, 186, 255);"/>
	<path class="st0_coding-2-31" d="M392.4,152.7c-0.3,0-0.5-0.2-0.6-0.4c-0.1-0.3,0-0.7,0.3-0.9c0.1-0.1,0.4-0.2,14.1-0.1c0.4,0,0.6,0.3,0.6,0.6&#10;&#9;&#9;c0,0.4-0.3,0.6-0.6,0.6l0,0c-4.9-0.1-13-0.1-13.7,0L392.4,152.7z"/>
	<path class="st2_coding-2-31 targetColor" d="M367.6,181h-10.5c-0.4,0-0.6-0.3-0.6-0.6c0-0.4,0.3-0.7,0.6-0.7l0,0h10.5c0.4,0,0.6,0.3,0.6,0.7&#10;&#9;&#9;C368.3,180.7,368,181,367.6,181z" style="fill: rgb(157, 186, 255);"/>
	<path class="st2_coding-2-31 targetColor" d="M342.9,185h-7.7c-0.4,0-0.6-0.3-0.6-0.6c0-0.4,0.3-0.7,0.6-0.7h7.7c0.4,0,0.6,0.3,0.6,0.7&#10;&#9;&#9;C343.6,184.7,343.3,185,342.9,185z" style="fill: rgb(157, 186, 255);"/>
	<path class="st0_coding-2-31" d="M364.1,185h-18.3c-0.4,0-0.6-0.3-0.6-0.6c0-0.4,0.3-0.7,0.6-0.7h18.3c0.4,0,0.6,0.3,0.6,0.7&#10;&#9;&#9;C364.8,184.7,364.5,185,364.1,185z"/>
	<path class="st2_coding-2-31 targetColor" d="M403.1,185h-35.4c-0.4,0-0.6-0.3-0.6-0.6c0-0.4,0.3-0.7,0.6-0.7h35.4c0.4,0,0.6,0.3,0.6,0.7&#10;&#9;&#9;C403.8,184.7,403.5,185,403.1,185z" style="fill: rgb(157, 186, 255);"/>
</g>
<g id="Mouse_coding-2-31">
	<path class="st1_coding-2-31" d="M336.7,306.2h36.6c0.7,0-4.2-15.8-16-16.2S336.7,306.2,336.7,306.2z"/>
	<path class="st1_coding-2-31" d="M373.4,306.8h-36.6c-0.4,0-0.7-0.3-0.7-0.7c0-0.1,0-0.2,0.1-0.3c0.4-0.7,9.2-17,21.3-16.6&#10;&#9;&#9;c11.5,0.4,16.7,14.9,16.7,16.7C374.1,306.4,373.8,306.8,373.4,306.8C373.4,306.8,373.4,306.8,373.4,306.8z M337.8,305.5h34.9&#10;&#9;&#9;c-0.6-2.9-5.7-14.5-15.4-14.9h-0.4C347.5,290.6,339.9,302.1,337.8,305.5L337.8,305.5z"/>
</g>
<g id="Keyboard_coding-2-31">
	<rect x="124.7" y="296.1" class="st0_coding-2-31" width="121.7" height="9.2"/>
	<path class="st1_coding-2-31" d="M246.4,306H124.7c-0.4,0-0.7-0.3-0.7-0.6v-9.2c0-0.4,0.3-0.6,0.7-0.6h121.7c0.4,0,0.6,0.3,0.6,0.6v9.2&#10;&#9;&#9;C247,305.7,246.8,306,246.4,306z M125.3,304.7h120.4v-7.9H125.3L125.3,304.7z"/>
</g>
<g id="Desk_coding-2-31">
	<rect x="60.5" y="322.2" class="st0_coding-2-31" width="27.2" height="64.7"/>
	<path class="st1_coding-2-31" d="M87.7,387.6H60.5c-0.4,0-0.6-0.3-0.7-0.6v-64.7c0-0.4,0.3-0.6,0.7-0.6h27.2c0.4,0,0.6,0.3,0.7,0.6V387&#10;&#9;&#9;C88.4,387.4,88.1,387.6,87.7,387.6z M61.1,386.3h25.9v-63.4H61.2L61.1,386.3z"/>
	<rect x="399.7" y="322.2" class="st0_coding-2-31" width="27.2" height="64.7"/>
	<path class="st1_coding-2-31" d="M427,387.6h-27.3c-0.4,0-0.6-0.3-0.6-0.6v-64.7c0-0.4,0.3-0.6,0.6-0.6H427c0.4,0,0.6,0.3,0.6,0.6V387&#10;&#9;&#9;C427.6,387.4,427.4,387.6,427,387.6z M400.4,386.3h25.9v-63.4h-26L400.4,386.3z"/>
	<rect x="60.5" y="322.2" class="st1_coding-2-31" width="27.2" height="16.8"/>
	<path class="st1_coding-2-31" d="M87.7,339.7H60.5c-0.4,0-0.6-0.3-0.7-0.6v-16.8c0-0.4,0.3-0.6,0.7-0.6h27.2c0.4,0,0.6,0.3,0.7,0.6V339&#10;&#9;&#9;C88.4,339.4,88.1,339.7,87.7,339.7C87.7,339.7,87.7,339.7,87.7,339.7z M61.1,338.4h25.9v-15.5H61.2L61.1,338.4z"/>
	<rect x="399.7" y="322.2" class="st1_coding-2-31" width="27.2" height="16.8"/>
	<path class="st1_coding-2-31" d="M427,339.7h-27.3c-0.4,0-0.6-0.3-0.6-0.6v-16.8c0-0.4,0.3-0.6,0.6-0.6H427c0.4,0,0.6,0.3,0.6,0.6V339&#10;&#9;&#9;C427.7,339.4,427.4,339.7,427,339.7C427,339.7,427,339.7,427,339.7z M400.4,338.4h25.9v-15.5h-26L400.4,338.4z"/>
	<rect x="43.9" y="306.1" class="st0_coding-2-31" width="399.7" height="16.2"/>
	<path class="st1_coding-2-31" d="M443.6,322.9H43.9c-0.4,0-0.6-0.3-0.7-0.6v-16.2c0-0.4,0.3-0.6,0.7-0.6h399.7c0.4,0,0.6,0.3,0.6,0.6v16.2&#10;&#9;&#9;C444.2,322.6,443.9,322.9,443.6,322.9C443.6,322.9,443.6,322.9,443.6,322.9z M44.6,321.6H443v-14.9H44.5L44.6,321.6z"/>
</g>
<g id="Character_coding-2-31">
	<path class="st1_coding-2-31" d="M199.4,331.5c0,0-58.6,14.1-60.4,24.4s2.8,30.6,2.8,30.6h151c0,0,7.2-42.7,0-58.9S199.4,331.5,199.4,331.5z"/>
	<path class="st1_coding-2-31" d="M292.8,387.2h-151c-0.3,0-0.6-0.2-0.6-0.5c-0.2-0.8-4.6-20.5-2.8-30.9c1.8-10.7,58.5-24.4,60.9-25l0,0&#10;&#9;&#9;c0.2,0,21.9-5.1,44.1-8c30.1-4,47-2.5,50.1,4.5c7.2,16.2,0.3,57.6,0,59.3C293.4,387,293.1,387.2,292.8,387.2z M142.3,385.9h150&#10;&#9;&#9;c0.8-5,6.5-43.1,0-58c-2.8-6.4-19.6-7.6-48.7-3.8c-22.1,2.9-43.6,7.9-44,8c-16.2,3.9-58.6,15.7-60,23.9&#10;&#9;&#9;C138,365.2,141.6,382.7,142.3,385.9L142.3,385.9z"/>
	<path class="st0_coding-2-31" d="M301,262.5l10.9,24.9c0,0,30.6,5.6,32.8,4.4s5.4-5.3,7.5-6.7s10.5-0.1,11.9,0.9s4.8,5.2,4.5,6.5&#10;&#9;&#9;s-2.4-0.1-2.4-0.1s3.1,2.1,2.4,3.7s-7.1-2.7-8.3-2.7s-4.5,9-8.1,12.1s-43.9,9-47.6,8.1s-24.6-31-24.6-31l4.2-19L301,262.5z"/>
	<path class="st1_coding-2-31" d="M305.8,314.4c-0.5,0-0.9,0-1.4-0.1c-3.9-0.9-22.8-28.1-25-31.2c-0.1-0.2-0.1-0.3-0.1-0.5l4.2-19&#10;&#9;&#9;c0.1-0.3,0.3-0.5,0.6-0.5l16.9-1.3c0.3,0,0.5,0.1,0.6,0.4l10.7,24.6c14.5,2.6,30.5,5.1,32,4.4c1.4-1,2.8-2.2,3.9-3.5&#10;&#9;&#9;c1.1-1.2,2.2-2.2,3.5-3.1c2.3-1.5,11.1-0.2,12.7,0.9c1.3,0.9,5.2,5.4,4.7,7.2c-0.1,0.4-0.4,0.7-0.7,0.9c0.7,0.7,1,1.7,0.7,2.7&#10;&#9;&#9;c-0.1,0.3-0.4,0.6-0.7,0.7c-1.1,0.4-3-0.5-5.8-1.8c-0.8-0.4-1.6-0.8-2.4-1.1c-0.8,1.1-1.5,2.3-2.1,3.6c-1.5,2.9-3.5,6.5-5.6,8.4&#10;&#9;&#9;c-2.4,2.1-17.6,4.7-24.1,5.7C319.8,313.2,309.7,314.4,305.8,314.4z M280.6,282.6c8,11.6,21.5,29.9,24,30.5c3.9,0.9,43.8-5.2,47-8&#10;&#9;&#9;c1.9-1.7,3.8-5.2,5.3-8c1.7-3.2,2.3-4.3,3.2-4.3c1.1,0.2,2.1,0.6,3.1,1.2c1.3,0.7,4.1,2,4.7,1.8c0.2-0.7-1.1-2-2.1-2.8l-0.1-0.1&#10;&#9;&#9;c-0.3-0.2-0.3-0.6-0.1-0.9c0.2-0.3,0.6-0.3,0.9-0.1l0.1,0.1c0.4,0.3,0.8,0.5,1.3,0.5c0.2-0.9-2.6-4.7-4.2-5.9&#10;&#9;&#9;c-1.2-0.9-9.4-2.1-11.2-0.9c-1.2,0.9-2.3,1.9-3.3,3c-1.3,1.4-2.7,2.7-4.2,3.7c-2.3,1.2-28.1-3.4-33.2-4.3c-0.2,0-0.4-0.2-0.5-0.4&#10;&#9;&#9;l-10.6-24.5l-15.9,1.2L280.6,282.6z"/>
	<path class="st0_coding-2-31" d="M174.9,264.4l-7.8,19.1c0,0-23.3-13.3-29.5-14.2c-17.6-2.7-24.1,8.6-24.4,10.5s17-0.1,17-0.1s-7.3,2.6-6.7,5.8&#10;&#9;&#9;c0.4,1.8,8.6-2.5,9.9-2.1s36.6,27.7,49,30.4s41-59.6,41-59.6"/>
	<path class="st1_coding-2-31" d="M183.2,314.5c-0.3,0-0.6,0-0.9-0.1c-9.8-2.1-32.9-18.8-44-26.8c-2.6-1.9-4.8-3.5-5.2-3.6&#10;&#9;&#9;c-1.3,0.2-2.5,0.6-3.7,1.1c-3.2,1.1-5.1,1.8-6.1,1.2c-0.3-0.2-0.5-0.4-0.6-0.8c-0.4-2,1.5-3.7,3.5-4.8c-5.3,0.5-12.4,1-13.6-0.2&#10;&#9;&#9;c-0.2-0.2-0.3-0.5-0.3-0.8c0.3-1.8,6.8-13.8,25.2-11c5.8,0.9,25.2,11.7,29.1,13.9l7.5-18.4c0.1-0.3,0.5-0.5,0.8-0.4c0,0,0,0,0,0&#10;&#9;&#9;c0.3,0.1,0.5,0.5,0.4,0.8c0,0,0,0,0,0l-7.8,19.1c-0.1,0.2-0.2,0.3-0.4,0.4c-0.2,0.1-0.4,0-0.5,0c-0.2-0.1-23.3-13.2-29.3-14.1&#10;&#9;&#9;c-17.4-2.6-22.9,8.2-23.6,9.8c1.5,0.6,9.4,0.1,16.2-0.7c0.4,0,0.7,0.2,0.7,0.6c0,0.3-0.1,0.6-0.4,0.7c-1.7,0.6-6.5,2.8-6.2,4.9&#10;&#9;&#9;c0.7,0.2,3.5-0.8,5-1.4c2.5-0.9,3.8-1.4,4.5-1.1c0.4,0.1,1.4,0.8,5.5,3.8c10.2,7.3,34,24.5,43.5,26.6c9.8,2.1,32.4-42,40.3-59.2&#10;&#9;&#9;c0.2-0.3,0.5-0.5,0.9-0.3c0.3,0.2,0.5,0.5,0.3,0.9C222.9,256.9,196.4,314.5,183.2,314.5z"/>
	<path class="st0_coding-2-31" d="M250.9,179.8c1.4-0.5,2.7-1.4,3.8-2.4c1.5-1.6,2.7-3.4,3.6-5.4c4.6-10.2,6.1-21.6,4.4-32.7&#10;&#9;&#9;c-0.7-4.8-1.7-11.4-4.5-15.5c-1.4-1.8-3.3-3.1-5.4-3.8c-0.6-0.2-6.7,0.2-6.1,0.9c-4.6-5.3-11.4-8.3-18.5-8&#10;&#9;&#9;c-5.9,0.2-13,2.8-16.8,7.5c-1.6,1.9-2.1,3.4-4.6,4.3c-3.3,1.1-6.9,0.9-10.1-0.5c-0.8-0.3-5.9-2.1-5.8-2.8&#10;&#9;&#9;c-0.2,6.9,3.7,13.3,9.9,16.3c-3.6,0.2-7.3-0.3-10.6-1.7c3.3,7.6,11.2,12.1,19.4,11.1c2.6,3.7,6,6.8,8.6,10.7&#10;&#9;&#9;c2.7,4.1,5.3,8.4,8.9,11.9C232.6,175.3,242.8,182.9,250.9,179.8z"/>
	<path class="st1_coding-2-31" d="M246.9,181.2c-8.1,0-16.7-7.3-20.4-10.8c-3.1-3.2-5.7-6.7-8-10.5l-1-1.5c-1.4-2-3-4-4.6-5.9&#10;&#9;&#9;c-1.3-1.4-2.6-2.9-3.7-4.5c-8.4,0.8-16.3-3.8-19.6-11.5c-0.1-0.2,0-0.5,0.1-0.7c0.2-0.2,0.5-0.2,0.7-0.1c2.6,1,5.3,1.6,8,1.7&#10;&#9;&#9;c-5.2-3.5-8.3-9.4-8.1-15.7c0-0.3,0.3-0.6,0.6-0.6c0,0,0,0,0,0c0.3,0,0.5,0.2,0.6,0.5c1.5,0.9,3,1.6,4.7,2.1l0.8,0.3&#10;&#9;&#9;c3,1.3,6.5,1.5,9.6,0.5c1.4-0.5,2.6-1.5,3.4-2.9c0.3-0.4,0.6-0.8,0.9-1.2c4.1-5,11.6-7.5,17.3-7.7c7-0.3,13.7,2.5,18.5,7.6&#10;&#9;&#9;c2-0.5,4.1-0.7,6.2-0.6c2.3,0.7,4.3,2.1,5.8,4c3,4.2,3.9,10.9,4.6,15.7c1.7,11.2,0.1,22.7-4.5,33.1c-0.9,2.1-2.1,4-3.7,5.6&#10;&#9;&#9;c-1.2,1.1-2.5,2-4,2.6l0,0C249.8,180.9,248.4,181.2,246.9,181.2z M209.4,146.6c0.2,0,0.4,0.1,0.5,0.3c1.2,1.6,2.5,3.2,3.9,4.8&#10;&#9;&#9;c1.7,1.9,3.3,3.9,4.7,6l1,1.5c2.2,3.7,4.8,7.2,7.9,10.3c4.2,4,14.9,13,23.3,9.8l0,0c1.3-0.5,2.5-1.3,3.6-2.3&#10;&#9;&#9;c1.4-1.5,2.6-3.3,3.4-5.2c4.5-10.1,6-21.3,4.4-32.3c-0.7-4.8-1.6-11.3-4.4-15.2c-1.3-1.7-3-2.9-5.1-3.5c-1.8,0-3.6,0.1-5.3,0.5&#10;&#9;&#9;c0,0.1-0.1,0.2-0.2,0.3c-0.3,0.2-0.7,0.2-0.9-0.1c0,0,0,0,0,0l0,0c-4.5-5.2-11.1-8-17.9-7.7c-5.4,0.2-12.5,2.5-16.3,7.2&#10;&#9;&#9;c-0.3,0.4-0.6,0.8-0.9,1.2c-0.9,1.5-2.3,2.7-4,3.3c-3.5,1.2-7.2,1-10.6-0.5l-0.8-0.3c-1.4-0.5-2.8-1.1-4.2-1.8&#10;&#9;&#9;c0.3,6.2,4,11.7,9.5,14.4c0.3,0.1,0.4,0.4,0.4,0.7c-0.1,0.3-0.3,0.5-0.6,0.5c-3.2,0.2-6.4-0.2-9.4-1.2&#10;&#9;&#9;C194.9,143.8,202,147.5,209.4,146.6L209.4,146.6z M191.5,121.6L191.5,121.6z"/>
	<path class="st0_coding-2-31" d="M208.8,160.9c0,0-6.8,13.1-4.8,15.5s7.3,0.1,7.3,0.1"/>
	<path class="st1_coding-2-31" d="M206.9,178.1c-1.3,0.1-2.5-0.4-3.4-1.3c-2.1-2.6,3.6-13.9,4.7-16.2c0.2-0.3,0.6-0.4,0.9-0.3s0.4,0.6,0.3,0.9&#10;&#9;&#9;l0,0c-3.2,6.3-5.9,13.5-4.9,14.8c1.4,1.6,5.2,0.5,6.6-0.1c0.3-0.1,0.7,0,0.9,0.3s0,0.7-0.3,0.9C210.1,177.7,208.5,178,206.9,178.1z&#10;&#9;&#9;"/>
	<path class="st0_coding-2-31" d="M208.8,144.5c-4.7,4.8-2.2,13.5-1.6,19.3c0.9,8.1,2.1,16.2,3.4,24.3c0.8,5.1,14.2,3.8,16.4,2l0.1,20.6&#10;&#9;&#9;l28.5-4.8l-4.6-25.7c0,0-9.1,1.1-15.4-8.9s-8.1-32.9-8.1-32.9S213.4,139.9,208.8,144.5z"/>
	<path class="st1_coding-2-31" d="M227.2,211.3c-0.2,0-0.3-0.1-0.4-0.2c-0.1-0.1-0.2-0.3-0.2-0.5l-0.1-19.5c-2.9,1.2-9.4,1.8-13.2,0.3&#10;&#9;&#9;c-2.3-0.9-3-2.3-3.2-3.3c-1.3-8.1-2.5-16.2-3.4-24.4c-0.1-1-0.3-2-0.4-3.1c-0.9-5.6-1.9-12.5,2.2-16.7c4.7-4.8,18.5-6.2,19.1-6.3&#10;&#9;&#9;c0.2,0,0.3,0,0.5,0.1c0.1,0.1,0.2,0.3,0.2,0.4c0,0.2,1.8,22.9,8,32.6c6.1,9.5,14.5,8.6,14.8,8.6c0.3,0,0.7,0.2,0.7,0.5l4.6,25.7&#10;&#9;&#9;c0,0.2,0,0.3-0.1,0.5c-0.1,0.1-0.3,0.2-0.4,0.3L227.2,211.3L227.2,211.3z M227,189.4c0.4,0,0.6,0.3,0.6,0.6c0,0,0,0,0,0l0.1,19.8&#10;&#9;&#9;l27.1-4.6l-4.4-24.5c-2.2,0.1-9.8-0.4-15.5-9.2c-5.9-9.1-7.8-28.5-8.2-32.5c-2.8,0.4-13.9,2-17.7,5.8c-3.7,3.7-2.6,10.3-1.8,15.6&#10;&#9;&#9;c0.2,1.1,0.3,2.2,0.5,3.2c0.9,8.1,2.1,16.3,3.4,24.3c0.2,1,0.9,1.8,2.4,2.3c4.1,1.5,11.6,0.5,13-0.7&#10;&#9;&#9;C226.7,189.5,226.9,189.4,227,189.4z"/>
	<path class="st0_coding-2-31" d="M210.2,182c0,0,6.7,3.2,9.4-3.7"/>
	<path class="st1_coding-2-31" d="M213.6,183.4c-1.3,0-2.6-0.3-3.7-0.8c-0.3-0.2-0.4-0.6-0.2-0.9c0.2-0.3,0.5-0.4,0.8-0.3&#10;&#9;&#9;c1.7,0.7,3.5,0.8,5.3,0.3c1.5-0.7,2.7-2,3.2-3.6c0.1-0.3,0.5-0.5,0.8-0.4s0.5,0.5,0.4,0.8c0,0,0,0,0,0.1c-0.6,2-2.1,3.6-4,4.4&#10;&#9;&#9;C215.3,183.2,214.5,183.4,213.6,183.4z"/>
	<path class="st0_coding-2-31" d="M225,164.4c-0.2-2,0.8-4,1.7-5.8c0.6-1.5,1.5-2.8,2.6-4c1.1-1.2,2.6-1.9,4.2-1.8c1.4,0.2,2.7,1,3.5,2.2&#10;&#9;&#9;c0.8,1.2,1.3,2.5,1.5,3.9c0.9,6.2-1.5,12.4-6.4,16.4l0.4-0.5"/>
	<path class="st1_coding-2-31" d="M232,175.9c-0.4,0-0.6-0.3-0.6-0.7c0-0.1,0-0.2,0.1-0.3l0.4-0.5c0.1-0.2,0.3-0.3,0.5-0.3l0,0&#10;&#9;&#9;c4.2-3.8,6.2-9.5,5.3-15.1c-0.2-1.3-0.6-2.6-1.4-3.7c-0.7-1-1.8-1.7-3-1.9c-1.4,0-2.8,0.5-3.7,1.6c-1,1.2-1.8,2.4-2.4,3.9&#10;&#9;&#9;c-0.8,1.6-1.8,3.6-1.6,5.5c0,0.4-0.2,0.7-0.6,0.7c0,0,0,0,0,0c-0.4,0-0.7-0.2-0.7-0.6c-0.2-2.3,0.9-4.4,1.7-6.2&#10;&#9;&#9;c0.7-1.5,1.6-2.9,2.7-4.2c1.2-1.4,3-2.1,4.8-2c1.6,0.2,3,1.1,3.9,2.4c0.8,1.3,1.4,2.7,1.6,4.2c1,6.4-1.5,12.9-6.6,17&#10;&#9;&#9;C232.3,175.8,232.1,175.9,232,175.9z"/>
	
		<ellipse transform="matrix(0.9985 -5.460164e-02 5.460164e-02 0.9985 -8.1102 11.7244)" class="st1_coding-2-31" cx="210.5" cy="154.3" rx="1.1" ry="2.9"/>
	<path class="st1_coding-2-31" d="M227,190.1c4.7-0.4,9.2-1.8,13.4-4.1c0,0-2.7,12.6-12.8,14.3L227,190.1z"/>
	<path class="st1_coding-2-31" d="M227.5,200.9c-0.2,0-0.3-0.1-0.4-0.1c-0.1-0.1-0.2-0.3-0.2-0.5l-0.5-10.1c0-0.4,0.3-0.7,0.6-0.7&#10;&#9;&#9;c4.6-0.4,9-1.8,13-4c0.3-0.2,0.7-0.1,0.9,0.2c0.1,0.2,0.1,0.3,0.1,0.5c-0.1,0.5-2.9,13.1-13.4,14.8L227.5,200.9z M227.7,190.7&#10;&#9;&#9;l0.4,8.8c7.1-1.6,10.2-9,11.2-12.2C235.7,189.1,231.7,190.2,227.7,190.7L227.7,190.7z"/>
	<path class="st2_coding-2-31 targetColor" d="M297.7,331.5c0,0-1.4-95.1-15.7-117.1s-51.2-26.8-69-13.8s-13.7,130.8-13.7,130.8H297.7z" style="fill: rgb(157, 186, 255);"/>
	<path class="st2_coding-2-31 targetColor" d="M225.4,195c0,0-21.1,1.8-33.4,11.9s-24.9,61.9-24.9,61.9l38.9,8.8L225.4,195z" style="fill: rgb(157, 186, 255);"/>
	<path class="st1_coding-2-31" d="M200.4,298.6L200.4,298.6c-0.4,0-0.6-0.3-0.6-0.7c0,0,0,0,0,0c0.5-28,1.3-75,1.6-75.8c0.1-0.3,0.5-0.5,0.9-0.3&#10;&#9;&#9;c0.3,0.1,0.5,0.5,0.4,0.8c-0.3,2-1.1,50.1-1.6,75.3C201,298.4,200.8,298.7,200.4,298.6z"/>
	<path class="st2_coding-2-31 targetColor" d="M267.4,201c0,0,17.8,2,27.2,21.6c5.1,10.6,18.2,44.8,18.2,44.8l-39.3,4.5L267.4,201z" style="fill: rgb(157, 186, 255);"/>
</g>
<g id="Cup_coding-2-31">
	<path class="st3_coding-2-31" d="M84.1,297.1l-4.9-0.1c-0.4,0-0.7-0.3-0.7-0.6s0.3-0.7,0.6-0.7c0,0,0,0,0,0l4.9,0.2c2.5,0.2,4.6-1.7,4.8-4.2&#10;&#9;&#9;s-1.7-4.6-4.2-4.8c-0.1,0-0.2,0-0.3,0c-0.4,0-0.7-0.3-0.7-0.6s0.3-0.7,0.6-0.7c0,0,0,0,0,0c3.2,0.2,5.6,2.9,5.4,6.1&#10;&#9;&#9;C89.6,294.8,87.1,297.2,84.1,297.1L84.1,297.1z"/>
	<path class="st0_coding-2-31" d="M93.4,300c-0.1,3.2-10.9,5.4-24.1,4.9s-23.8-3.3-23.8-6.5L93.4,300z"/>
	<path class="st3_coding-2-31" d="M69.2,305.6c-11.9-0.4-24.5-3-24.4-7.2c0-0.4,0.3-0.6,0.7-0.6l47.9,1.6c0.4,0,0.6,0.3,0.6,0.7c0,0,0,0,0,0&#10;&#9;&#9;C93.9,304.2,81.2,306,69.2,305.6z M46.4,299.2c1.5,2.1,9.9,4.8,22.9,5.2s21.5-1.7,23.2-3.7L46.4,299.2z"/>
	<polygon class="st0_coding-2-31" points="81.7,299.7 57.2,298.9 53.1,280.4 87,281.5 &#9;"/>
	<path class="st3_coding-2-31" d="M81.7,300.3l-24.5-0.8c-0.3,0-0.6-0.2-0.6-0.5l-4.1-18.5c0-0.2,0-0.4,0.1-0.6c0.1-0.2,0.3-0.2,0.5-0.2&#10;&#9;&#9;l33.9,1.1c0.2,0,0.4,0.1,0.5,0.3c0.1,0.2,0.2,0.4,0.1,0.6l-5.3,18.1C82.2,300.1,82,300.3,81.7,300.3z M57.7,298.2l23.5,0.8&#10;&#9;&#9;l4.9-16.9l-32.2-1.1L57.7,298.2z"/>
</g>
<g id="Books_coding-2-31">
	<rect x="388.6" y="295.8" class="st0_coding-2-31" width="52.4" height="9.2"/>
	<path class="st3_coding-2-31" d="M441.1,305.7h-52.4c-0.4,0-0.7-0.3-0.7-0.6c0,0,0,0,0,0v-9.2c0-0.4,0.3-0.6,0.6-0.6h52.4&#10;&#9;&#9;c0.4,0,0.6,0.3,0.6,0.6v9.2C441.7,305.4,441.4,305.7,441.1,305.7C441.1,305.7,441.1,305.7,441.1,305.7z M389.3,304.4h51.1v-7.9&#10;&#9;&#9;h-51.1V304.4z"/>
	<rect x="396" y="286.6" class="st0_coding-2-31" width="60.1" height="9.2"/>
	<path class="st3_coding-2-31" d="M456.1,296.5H396c-0.4,0-0.6-0.3-0.6-0.6v-9.2c0-0.4,0.3-0.6,0.6-0.6h60.1c0.4,0,0.6,0.3,0.6,0.6v9.2&#10;&#9;&#9;C456.8,296.2,456.5,296.5,456.1,296.5C456.1,296.5,456.1,296.5,456.1,296.5z M396.6,295.2h58.8v-7.9h-58.8L396.6,295.2z"/>
	<rect x="390.6" y="277.4" class="st0_coding-2-31" width="60.1" height="9.2"/>
	<path class="st3_coding-2-31" d="M450.7,287.2h-60.1c-0.4,0-0.6-0.3-0.6-0.6v-9.2c0-0.4,0.3-0.6,0.6-0.6h60.1c0.4,0,0.6,0.3,0.6,0.6v9.2&#10;&#9;&#9;C451.4,286.9,451.1,287.2,450.7,287.2z M391.3,285.9h58.8V278h-58.8L391.3,285.9z"/>
	<rect x="420.7" y="295.8" class="st1_coding-2-31" width="27.5" height="9.2"/>
	<path class="st1_coding-2-31" d="M448.2,305.7h-27.5c-0.4,0-0.7-0.3-0.7-0.6c0,0,0,0,0,0v-9.2c0-0.4,0.3-0.6,0.6-0.6h27.5&#10;&#9;&#9;c0.4,0,0.6,0.3,0.6,0.6v9.2C448.9,305.4,448.6,305.6,448.2,305.7z M421.3,304.4h26.2v-7.9h-26.2V304.4z"/>
	<rect x="424.5" y="286.6" class="st1_coding-2-31" width="31.6" height="9.2"/>
	<path class="st1_coding-2-31" d="M456.1,296.5h-31.6c-0.4,0-0.6-0.3-0.6-0.6v-9.2c0-0.4,0.3-0.6,0.6-0.6h31.6c0.4,0,0.6,0.3,0.6,0.6v9.2&#10;&#9;&#9;C456.8,296.2,456.5,296.5,456.1,296.5z M425.2,295.2h30.3v-7.9h-30.3L425.2,295.2z"/>
	<rect x="421.7" y="277.4" class="st1_coding-2-31" width="31.6" height="9.2"/>
	<path class="st1_coding-2-31" d="M453.3,287.2h-31.6c-0.4,0-0.6-0.3-0.6-0.6v-9.2c0-0.4,0.3-0.6,0.6-0.6h31.6c0.4,0,0.6,0.3,0.6,0.6v9.2&#10;&#9;&#9;C453.9,286.9,453.6,287.2,453.3,287.2z M422.4,285.9h30.3V278h-30.3V285.9z"/>
</g>
<g id="Chair_coding-2-31">
	<path class="st1_coding-2-31" d="M302.3,305.3h-61.9c-7.6,0-13.7-6.1-13.7-13.7c0-0.6,0-1.2,0.1-1.8l6.8-52.1c0.9-6.8,6.7-11.9,13.6-11.9h61.9&#10;&#9;&#9;c7.6,0,13.7,6.2,13.7,13.7c0,0.6,0,1.2-0.1,1.8l-6.8,52.1C315,300.2,309.2,305.3,302.3,305.3z"/>
	<path class="st1_coding-2-31" d="M302.3,306h-61.9c-7.9,0-14.4-6.4-14.4-14.4c0-0.6,0-1.2,0.1-1.9l6.8-52.1c0.9-7.2,7-12.5,14.2-12.5h61.9&#10;&#9;&#9;c7.9,0,14.4,6.4,14.4,14.4c0,0.6,0,1.3-0.1,1.9l-6.8,52.1C315.6,300.6,309.5,306,302.3,306z M247.2,226.5c-6.6,0-12.1,4.9-13,11.4&#10;&#9;&#9;l-6.8,52.1c-0.9,7.2,4.1,13.7,11.2,14.6c0.6,0.1,1.2,0.1,1.8,0.1h61.9c6.6,0,12.1-4.9,13-11.4l6.8-52.1c0.9-7.2-4.1-13.7-11.3-14.7&#10;&#9;&#9;c-0.6-0.1-1.1-0.1-1.7-0.1L247.2,226.5z"/>
	<path class="st1_coding-2-31" d="M262.6,271.9c0,0,7.4,8.7,7.7,11.9s-14.6,77.9-14.6,77.9l21.1-5.9c0,0,14.6-69.6,13.2-74.9&#10;&#9;&#9;s-10.1-12.1-10.1-12.1L262.6,271.9z"/>
	<path class="st1_coding-2-31" d="M255.7,362.3c-0.4,0-0.7-0.3-0.7-0.6c0,0,0-0.1,0-0.1c6-30,14.8-75.4,14.6-77.7c-0.2-2.5-5.5-9.2-7.5-11.6&#10;&#9;&#9;c-0.2-0.3-0.2-0.7,0.1-0.9c0.1-0.1,0.2-0.1,0.3-0.1l17.3-3.2c0.2,0,0.4,0,0.5,0.1c0.4,0.3,8.9,7,10.4,12.5S278,353,277.4,355.9&#10;&#9;&#9;c0,0.2-0.2,0.4-0.5,0.5l-21.1,5.9L255.7,362.3z M263.8,272.3c2,2.4,6.9,8.6,7.1,11.4c0.3,3.1-12.6,67.6-14.4,77l19.7-5.5&#10;&#9;&#9;c4.1-19.6,14.3-70,13.2-74.2c-1.2-4.6-8.3-10.5-9.7-11.6L263.8,272.3z"/>
	<path class="st1_coding-2-31" d="M191.3,353.2H299c4.9,0,8.8,3.9,8.8,8.8v15.7c0,4.9-3.9,8.8-8.8,8.8H191.3c-4.9,0-8.8-3.9-8.8-8.8V362&#10;&#9;&#9;C182.5,357.2,186.4,353.2,191.3,353.2z"/>
	<path class="st1_coding-2-31" d="M299,387.2H191.3c-5.2,0-9.4-4.2-9.4-9.4V362c0-5.2,4.2-9.4,9.4-9.4H299c5.2,0,9.4,4.2,9.4,9.4v15.7&#10;&#9;&#9;C308.4,383,304.2,387.2,299,387.2L299,387.2z M191.3,353.9c-4.5,0-8.1,3.7-8.1,8.1v15.7c0,4.5,3.6,8.1,8.1,8.1H299&#10;&#9;&#9;c4.5,0,8.1-3.6,8.1-8.1V362c0-4.5-3.6-8.1-8.1-8.1L191.3,353.9z"/>
	<path class="st0_coding-2-31" d="M182.4,379.6c-0.4,0-0.6-0.3-0.6-0.6v-16.6c0-5.5,4.4-9.9,9.8-10l65.4-1.1l11.6-59.7c0-0.1,2.8-13.5-4.7-17.2&#10;&#9;&#9;c-0.3-0.2-0.4-0.5-0.3-0.9c0,0,0,0,0,0c0.1-0.3,0.5-0.5,0.8-0.3c0,0,0,0,0,0c8.4,4.1,5.5,18,5.4,18.6l-11.7,60.2&#10;&#9;&#9;c-0.1,0.3-0.3,0.5-0.6,0.5l-66,1.1c-4.7,0.1-8.5,4-8.6,8.7V379C183,379.3,182.8,379.6,182.4,379.6z"/>
	<path class="st0_coding-2-31" d="M290,283.6L290,283.6c-0.4,0-0.6-0.3-0.6-0.7c0,0,0,0,0,0c0.3-4.1-1.7-7.9-5.2-10c-0.3-0.2-0.4-0.6-0.2-0.9&#10;&#9;&#9;c0.2-0.3,0.6-0.4,0.9-0.2c3.9,2.4,6.1,6.7,5.8,11.2C290.7,283.4,290.4,283.6,290,283.6C290,283.6,290,283.6,290,283.6z"/>
	<path class="st0_coding-2-31" d="M299.2,353.9L299.2,353.9l-21.8-0.2c-0.2,0-0.4-0.1-0.5-0.2c-0.1-0.1-0.2-0.3-0.1-0.5l4.4-21.6&#10;&#9;&#9;c0.1-0.3,0.4-0.6,0.8-0.5c0.3,0.1,0.6,0.4,0.5,0.8l-4.2,20.9l21,0.1c0.4,0,0.6,0.3,0.6,0.7C299.8,353.6,299.5,353.9,299.2,353.9z"/>
</g>
</svg>